<svg id="pot" enable-background="new 0 0 512 512" height="300" viewBox="0 0 512 512" width="300" xmlns="http://www.w3.org/2000/svg" version="1.1" xmlns:xlink="http://www.w3.org/1999/xlink" xmlns:svgjs="http://svgjs.dev/svgjs"><g width="100%" height="100%" transform="matrix(1,0,0,1,0,0)"><path d="m369.75 178.103-20.51 2.68c-.141.02-.27.03-.4.03-1.479 0-2.77-1.1-2.97-2.61-.21-1.65.95-3.15 2.59-3.37l20.511-2.68c1.64-.22 3.14.94 3.369 2.58v.01c.211 1.64-.949 3.14-2.59 3.36z" fill="#fd1b0a" fill-opacity="1" data-original-color="#000000ff" stroke="none" stroke-opacity="1"/><path d="m470.386 243.545h-27.339c-6.085 0-11.57 3.842-13.65 9.56l-5.622 15.462c-.01.026-.011.054-.019.081-.013.035-.031.067-.042.104-.101.326-2.408 7.376-14.306 10.933v-19.245h3.988c2.537 0 4.602-2.064 4.602-4.601v-8.95c0-2.537-2.064-4.601-4.602-4.601h-259.46c-1.656 0-3 1.343-3 3s1.344 3 3 3h258.063v6.153h-5.59-300.888-5.591v-6.153h36.353c1.657 0 3-1.343 3-3s-1.343-3-3-3h-37.751c-2.537 0-4.602 2.064-4.602 4.601v8.95c0 2.537 2.064 4.601 4.602 4.601h3.989v19.225c-11.837-3.563-14.135-10.584-14.225-10.875-.014-.05-.037-.096-.054-.145-.008-.025-.009-.052-.018-.077l-5.622-15.462c-2.08-5.718-7.565-9.56-13.649-9.56h-27.34c-8.009 0-14.524 6.516-14.524 14.523 0 8.009 6.516 14.524 14.524 14.524h18.122c8.748 26.825 29.447 35.255 42.785 37.862v73.961c0 23.424 13.991 43.628 34.047 52.734h-88.805c-1.656 0-3 1.344-3 3 0 1.657 1.344 3 3 3h395.595c1.656 0 3-1.343 3-3 0-1.656-1.344-3-3-3h-67.997c20.056-9.106 34.048-29.311 34.048-52.734v-73.948c13.334-2.591 34.092-11.001 42.855-37.875h18.122c8.009 0 14.524-6.516 14.524-14.524.001-8.008-6.514-14.524-14.523-14.524zm-437.296 14.523c0-4.7 3.824-8.523 8.524-8.523h27.34c3.57 0 6.789 2.255 8.01 5.611l4.159 11.437h-19.185-20.324c-4.7 0-8.524-3.824-8.524-8.525zm32.976 14.525h17.375c1.809 3.468 6.768 10.114 19.08 13.301v18.443c-13.262-2.816-28.906-10.778-36.455-31.744zm337.342 111.823c0 28.615-23.281 51.896-51.897 51.896h-191.093c-28.616 0-51.896-23.281-51.896-51.896v-75.822c.047-.211.071-.428.071-.648v-24.419c0-.212-.029-.418-.071-.619v-22.468h294.887v23.087 24.419 76.47zm6-80.063v-18.438c12.365-3.18 17.338-9.847 19.15-13.321h17.375c-7.562 21.002-23.248 28.955-36.525 31.759zm60.978-37.76h-20.324-19.185l4.159-11.438c1.22-3.355 4.438-5.61 8.011-5.61h27.339c4.7 0 8.524 3.824 8.524 8.523 0 4.701-3.824 8.525-8.524 8.525z" fill="#fd1b0a" fill-opacity="1" data-original-color="#000000ff" stroke="none" stroke-opacity="1"/><path d="m417.061 168.883c-2.91-22.3-14.34-42.12-32.17-55.83s-39.931-19.65-62.23-16.73l-13 1.7c-2.78-2.34-5.73-4.52-8.83-6.44-4.67-2.91-10.22-4.12-15.62-3.41l-6.12.8-.16-1.23c-.08-.65.09-1.29.49-1.81.4-.53.98-.86 1.631-.94 2.549-.34 4.369-2.59 4.85-6.04.539-3.84-.58-8.45-3.79-9.85-.49-.21-1.11-.3-1.64-.23l-61.41 8.03c-.521.07-1.01.28-1.431.6-3.14 2.4-2.489 7.63-1.279 10.56 1.319 3.2 3.63 4.91 6.189 4.58 1.28-.16 2.45.74 2.62 2.02l.181 1.34-5.921.77c-5.35.7-10.29 3.19-13.909 7-2.601 2.74-5 5.7-7.181 8.81l-12.989 1.7c-46.04 6.02-78.591 48.37-72.57 94.41.1.79.52 1.5 1.149 1.99.521.4 1.171.62 1.83.62.12 0 .25-.01.38-.03l215.521-28.19c1.65-.21 2.8-1.72 2.59-3.36-.221-1.64-1.73-2.8-3.37-2.59l-137.479 17.99-61.55 8.05-13.45 1.76c-3.851-41.59 25.97-79.24 67.72-84.7l14.3-1.87 108.72-14.22h.011l8.799-1.15 5.5-.72c20.711-2.71 41.23 2.81 57.791 15.54 15.77 12.11 26.14 29.39 29.439 48.89l-14.689 2.01c-.01-.03-.01-.06-.021-.09l-9.47 1.24c-1.641.21-2.801 1.72-2.58 3.36.21 1.64 1.72 2.8 3.359 2.59l27.211-3.56c.789-.1 1.5-.52 1.99-1.15.477-.63.697-1.43.588-2.22zm-194.72-82.24c-.62-.8-1.101-2.81-1-3.98l58.419-7.64c.37 1.12.381 3.2-.029 4.11-2.021.39-3.801 1.49-5.07 3.14-1.37 1.79-1.971 4.01-1.68 6.25l.16 1.23-41.86 5.47-.17-1.34c-.571-4.37-4.421-7.51-8.77-7.24zm63.479 14.5-79.14 10.35c1.02-1.24 2.08-2.43 3.18-3.59 2.68-2.82 6.35-4.66 10.34-5.18l65.79-8.6c.75-.1 1.5-.15 2.25-.15 3.29 0 6.57.93 9.42 2.7 1.24.77 2.46 1.59 3.66 2.44z" fill="#fd1b0a" fill-opacity="1" data-original-color="#000000ff" stroke="none" stroke-opacity="1"/><path d="m166.442 174.638c-2.41-1.853-5.399-2.657-8.412-2.261-6.222.813-10.622 6.538-9.81 12.761.396 3.015 1.939 5.695 4.35 7.547 2.009 1.544 4.42 2.359 6.912 2.359.497 0 .998-.032 1.5-.098 3.014-.394 5.694-1.938 7.547-4.349 1.854-2.41 2.656-5.397 2.263-8.412-.396-3.015-1.939-5.695-4.35-7.547zm-6.238 14.359c-1.425.186-2.838-.193-3.978-1.069-1.139-.876-1.869-2.143-2.056-3.568-.386-2.942 1.695-5.649 4.638-6.034.237-.031.475-.046.709-.046 1.179 0 2.318.385 3.268 1.116 1.14.876 1.87 2.143 2.057 3.568.385 2.942-1.696 5.648-4.638 6.033z" fill="#fd1b0a" fill-opacity="1" data-original-color="#000000ff" stroke="none" stroke-opacity="1"/><path d="m193.867 171.05c-2.411-1.853-5.396-2.656-8.413-2.261-3.014.394-5.694 1.938-7.547 4.349-1.853 2.41-2.656 5.397-2.262 8.412s1.938 5.695 4.35 7.547c2.01 1.544 4.419 2.359 6.912 2.359.497 0 .998-.032 1.5-.098 3.014-.394 5.694-1.938 7.547-4.349 1.854-2.41 2.656-5.398 2.262-8.412-.395-3.014-1.94-5.694-4.349-7.547zm-2.67 12.304c-.876 1.14-2.143 1.87-3.568 2.056s-2.838-.193-3.978-1.069-1.87-2.143-2.057-3.568c-.385-2.942 1.696-5.649 4.639-6.034.235-.031.47-.046.701-.046 2.659 0 4.979 1.978 5.332 4.684.187 1.424-.193 2.837-1.069 3.977z" fill="#fd1b0a" fill-opacity="1" data-original-color="#000000ff" stroke="none" stroke-opacity="1"/></g></svg>