<svg height="300" viewBox="0 0 128 128" width="300" xmlns="http://www.w3.org/2000/svg" xmlns:xlink="http://www.w3.org/1999/xlink" version="1.1" xmlns:svgjs="http://svgjs.dev/svgjs"><g width="100%" height="100%" transform="matrix(1,0,0,1,0,0)"><linearGradient id="a" gradientUnits="userSpaceOnUse" x1="88.086" x2="8.723" y1="99.161" y2="19.798"><stop offset="0" stop-color="#fd5c70"/><stop offset="1" stop-color="#ffce64"/></linearGradient><path d="m24.091 34.023a7.7 7.7 0 1 0 -7.705-7.705 7.713 7.713 0 0 0 7.705 7.705zm0-11.909a4.2 4.2 0 1 1 -4.205 4.2 4.209 4.209 0 0 1 4.205-4.2zm-1.75-7.614v-1.909a1.75 1.75 0 0 1 3.5 0v1.909a1.75 1.75 0 0 1 -3.5 0zm8.869 4.7a1.751 1.751 0 0 1 0-2.475l1.35-1.35a1.75 1.75 0 1 1 2.475 2.475l-1.35 1.35a1.751 1.751 0 0 1 -2.475 0zm4.7 5.369h1.909a1.75 1.75 0 0 1 0 3.5h-1.91a1.75 1.75 0 0 1 0-3.5zm-2.224 8.87 1.35 1.35a1.75 1.75 0 1 1 -2.475 2.474l-1.35-1.35a1.75 1.75 0 1 1 2.475-2.474zm-9.594 2.948a1.751 1.751 0 0 1 1.75 1.75v1.909a1.75 1.75 0 0 1 -3.5 0v-1.91a1.75 1.75 0 0 1 1.749-1.75zm-7.119-2.948a1.75 1.75 0 0 1 0 2.474l-1.35 1.35a1.75 1.75 0 1 1 -2.475-2.474l1.35-1.35a1.749 1.749 0 0 1 2.474-.001zm-4.7-5.37h-1.909a1.75 1.75 0 0 1 0-3.5h1.909a1.75 1.75 0 0 1 0 3.5zm.874-10.219a1.75 1.75 0 1 1 2.475-2.475l1.35 1.35a1.75 1.75 0 0 1 -2.472 2.475zm73.4 18.806a9.39 9.39 0 0 1 -2.782-9.7 9.177 9.177 0 0 1 7.029-6.543c2.055-.36 5.942-.2 9.927 4.449a7.381 7.381 0 0 1 7.706.312 7.652 7.652 0 0 1 3.222 8.253 1.75 1.75 0 1 1 -3.388-.877 4.2 4.2 0 0 0 -1.775-4.463c-1.51-1-3.37-.829-5.1.486a1.75 1.75 0 0 1 -2.468-.36c-2.378-3.239-5.047-4.79-7.516-4.352a5.656 5.656 0 0 0 -4.275 4.084 5.882 5.882 0 0 0 1.8 6.138 1.75 1.75 0 1 1 -2.375 2.57zm15.273-.856a1.75 1.75 0 0 1 0 3.5h-4.97a1.75 1.75 0 0 1 0-3.5zm15.816 29.586h-5.727a1.749 1.749 0 0 0 -1.411.715l-15.293 20.831h-8.767l-7.532-26.191a5.181 5.181 0 0 0 -2.711-9.417l-2.964-10.307a1.749 1.749 0 1 0 -3.363.966l2.677 9.317h-3.826l-7.168-7.087a11.219 11.219 0 0 0 -1.215-1.026 10.1 10.1 0 0 0 .446-17.231 1.751 1.751 0 0 0 -1.9 2.938 6.615 6.615 0 1 1 -7.2 0 1.75 1.75 0 0 0 -1.918-2.928 10.1 10.1 0 0 0 -1.086 16.126 11.3 11.3 0 0 0 -2.294 1.467 7.1 7.1 0 1 0 -13.475 4.4 1.723 1.723 0 0 0 -1.512 1.439l-2.8 16.689a7.435 7.435 0 0 0 10.387 8.013l-.071 9.8-5.034 9.893a7 7 0 0 0 .044 6.494c.053.1.117.19.173.286h-2.641a1.746 1.746 0 0 0 -.987.305l-19.181 13.086a1.75 1.75 0 0 0 1.972 2.891l18.741-12.787h30.636a1.749 1.749 0 0 0 1.181-.458l11.8-10.8 2.6-2.381h17.874a1.749 1.749 0 0 0 1.411-.715l15.298-20.828h4.841a1.75 1.75 0 0 0 0-3.5zm-64.117-20.915h.127a7.691 7.691 0 0 1 5.444 2.229l7.68 7.593a1.747 1.747 0 0 0 1.23.507h6.839.03s.023 0 .035 0h1.005a1.7 1.7 0 0 1 .472 3.335c-.015 0-.03 0-.045.008s-.042.019-.065.026a1.723 1.723 0 0 1 -.362.041h-15.781l-5.137-4.64a1.75 1.75 0 0 0 -2.346 2.6l4.955 4.465-.191 1.422c-5.236 1.936-11.19 1.8-14.067 1.573a125.036 125.036 0 0 1 2.777-13.543 7.666 7.666 0 0 1 7.4-5.616zm19.739 45.76a2.939 2.939 0 0 1 -4.27-.316l-6.016-7.406c-3.216-3.958-9.458-6.346-13.02-6.673-2.15-.4-4.6.243-6.468-2.068a4.8 4.8 0 0 1 -1.041-3.612q.188-1.554.39-3.05c.968.084 2.276.163 3.81.163a37.168 37.168 0 0 0 10.244-1.358l-.44 3.265a1.75 1.75 0 0 0 1 1.823l4.632 2.13a12.176 12.176 0 0 1 4.727 3.86l6.836 9.331a2.938 2.938 0 0 1 -.384 3.911zm-33.746-48.495a3.608 3.608 0 1 1 -3.612 3.608 3.612 3.612 0 0 1 3.612-3.608zm-4.346 29.449a3.935 3.935 0 0 1 -3.12-4.525l2.51-14.96 7.244 1.249a165.079 165.079 0 0 0 -2.83 16.789c-.005.038 0 .075-.008.112a3.936 3.936 0 0 1 -3.796 1.335zm1.856 27.469a3.54 3.54 0 0 1 -.022-3.281l5.221-10.26a1.747 1.747 0 0 0 .19-.78l.049-6.783c2.595 1.829 4.933 1.426 7.021 1.757v7.333l-6.111 11.977a3.575 3.575 0 0 1 -6.348.037zm24.935 1.914h-15.685c.071-.121.153-.235.217-.362l6.3-12.351a1.745 1.745 0 0 0 .191-.8v-6.922c3.047 1.217 5.224 2.057 7.275 4.583l6.016 7.406a6.464 6.464 0 0 0 2.764 1.972zm15.635-13.636a6.4 6.4 0 0 0 -1.122-2.68l-6.836-9.331a15.685 15.685 0 0 0 -6.089-4.972l-3.456-1.589.9-6.655h14.552l7.259 25.227z" fill="#fd1b0a" data-original-color="a" stroke="none" stroke-opacity="1" fill-opacity="1"/></g></svg>