<svg id="Layer_1" enable-background="new 0 0 64 64" viewBox="0 0 64 64" xmlns="http://www.w3.org/2000/svg" width="300" height="300" version="1.1" xmlns:xlink="http://www.w3.org/1999/xlink" xmlns:svgjs="http://svgjs.dev/svgjs"><g width="100%" height="100%" transform="matrix(1,0,0,1,0,0)"><g><path d="m14.6124268 19.5934753h-1.697815v11.4451294l1.697815-.6137085z" fill="#fd1b0a" fill-opacity="1" data-original-color="#000000ff" stroke="none" stroke-opacity="1"/><path d="m13.8862305 36.3059387c-.1943359-.2454224-.2556763-.5625-.184082-.8591309s.2659302-.5523071.5421143-.6852417l3.7536621-1.8206177c.3170166-.1534424.4807129-.5011597.3886719-.8386841-.0614014-.2761841-.2557373-.4090576-.3579712-.470459-.1125488-.0511475-.3273315-.1329346-.5932617-.0409546l-1.3909912.5011597c-.0102539 0-.0204468 0-.0307007.0102539l-5.3389893 1.9024048c-.5421143.1943359-1.1251221-.0817871-1.3092041-.6136475-.1943359-.5319214.0818481-1.125061.6136475-1.3092041l.8898926-.3170776v-5.2367554l-2.6081543 1.9945068c-.9102783.6852417-1.4421387 1.7796631-1.4421387 2.914978v16.0374756h6.2492676v-4.1832886c0-.2863159.1227417-.5625.3375854-.7568359l.7363281-.664856c.5728149-.5114136.9614868-1.2171021 1.0944214-1.973999.1636963-.9511719-.0817871-1.9331055-.6647949-2.6899414z" fill="#fd1b0a" fill-opacity="1" data-original-color="#000000ff" stroke="none" stroke-opacity="1"/><path d="m51.0853882 19.5934753h-1.697815v10.8314209l1.697815.6137085z" fill="#fd1b0a" fill-opacity="1" data-original-color="#000000ff" stroke="none" stroke-opacity="1"/><path d="m55.7391357 28.5224915-2.6081543-1.9945068v5.2367553l.8898926.3170776c.5317993.1841431.8079834.7772827.6136475 1.3092041-.184082.5318604-.7670898.8079834-1.3092041.6136475l-5.3389893-1.9024048c-.0102539-.0102539-.0204468-.0102539-.0307007-.0102539l-1.3909912-.5011597c-.2659302-.09198-.4807129-.0101929-.5932617.0409546-.1022339.0614014-.2965698.1942749-.3681641.470459-.0818481.3375244.0818481.6852417.3988647.8386841l3.7536621 1.8206177c.2761841.1329346.47052.3886108.5421143.6852417s.0102539.6137085-.184082.8591309l-.6853027.9000854c-.5830078.7568359-.8284912 1.7387695-.6647949 2.6899414.1329346.756897.5216064 1.4625854 1.0944214 1.973999l.7363281.664856c.2148438.1943359.3375854.47052.3375854.7568359v4.1832886h6.2492676v-16.0374756c0-1.135315-.5318603-2.2297363-1.4421387-2.914978z" fill="#fd1b0a" fill-opacity="1" data-original-color="#000000ff" stroke="none" stroke-opacity="1"/><path d="m46.7487183 40.141449c-2.822937-.1533813-10.1461182-.2249756-14.1248169 2.8126831-.1840821.1329956-.4091187.2045898-.6239014.2045898s-.4398193-.0715942-.6239014-.2045898c-3.9889526-3.0479126-11.3018799-2.9660645-14.1248169-2.8126831v.1022949c-.0921021.5114136-.2659302 1.0023193-.5011597 1.4728394 4.9503175-.1431885 9.6245118.4193115 15.249878 2.8740844 5.6253662-2.4547729 10.3098145-3.0275269 15.2396851-2.8843384-.2250366-.4602661-.3988647-.9511719-.4909668-1.4625854z" fill="#fd1b0a" fill-opacity="1" data-original-color="#000000ff" stroke="none" stroke-opacity="1"/><path d="m30.9771729 40.2846375v-19.6275025c-3.7025146-3.7434082-11.5678101-4.1218262-14.3191528-4.1320801v13.1736451l.0921021-.0307007c.7363892-.2659302 1.5443726-.2045898 2.2399292.1636963.6852417.3681641 1.1966553 1.0125732 1.3807373 1.7694092.3273315 1.2682495-.2965698 2.6081543-1.4728394 3.1809082l-2.6286011 1.2785034c.4500732.6137085.756897 1.3092041.9205933 2.0353394 2.9762572-.1738892 9.2665404-.1840821 13.7872314 2.1887817zm-11.291626-18.7478638c.2249756-.0408936 5.5946655-.8693848 9.5426636 2.1069336.4500122.3375244.5421143.9819336.2045288 1.4319458-.2045288.2659302-.5113525.4091187-.8181763.4091187-.2148438 0-.4295654-.0715942-.6239014-.2045288-3.2525024-2.4649658-7.9266968-1.7387695-7.9778442-1.7285156-.562561.09198-1.0842285-.286438-1.1762085-.848938-.0818482-.5523072.2965698-1.0841676.848938-1.1660157zm.3272705 6.3822632c-.562561.0817871-1.0842285-.2966309-1.1762085-.848938-.0818481-.5625.2965698-1.0841675.848938-1.1762085.2249756-.0306396 5.5946655-.8693848 9.5426636 2.1171875.4500122.3375244.5421143.9819336.2045288 1.4319458-.2045288.2659302-.5113525.3989258-.8181763.3989258-.2148438 0-.4295654-.0614624-.6239014-.2045898-3.2525024-2.454773-7.9266968-1.7285157-7.9778442-1.7183228z" fill="#fd1b0a" fill-opacity="1" data-original-color="#000000ff" stroke="none" stroke-opacity="1"/><path d="m43.6292114 31.6011047c.184082-.7568359.6954956-1.4012451 1.3807373-1.7694092.6955566-.3682861 1.50354-.4296265 2.2399292-.1636963l.0921021.0307008v-13.173645c-2.7513428.0102539-10.6166382.3886719-14.3191528 4.1320801v19.6275024c4.510498-2.3728638 10.8109741-2.352417 13.7872314-2.1887817.1636963-.7261353.47052-1.4216309.9205933-2.0353394l-2.6286011-1.2785034c-1.1762695-.572754-1.8001709-1.9126588-1.4728394-3.1809083zm-8.8574218-7.9573974c3.947998-2.9763184 9.317688-2.1478271 9.5426636-2.1069336.5523682.0818481.9307861.6137085.8386841 1.1660156-.0817261.5625-.6238403.9307251-1.1659546.848938-.0511475-.0102539-4.7457886-.7160034-7.9778442 1.7285156-.1943359.1329346-.4090576.2045288-.6239014.2045288-.3068237 0-.6136475-.1431885-.8181763-.4091187-.3375855-.4500121-.2454835-1.0944213.2045288-1.4319457zm1.2375488 5.9936523c-.1943359.1431274-.4090576.2045898-.6239014.2045898-.3068237 0-.6136475-.1329956-.8181763-.3989258-.3375854-.4500122-.2454834-1.0944214.2045288-1.4319458 3.947998-2.9865723 9.317688-2.1478271 9.5426636-2.1171875.5523682.092041.9307861.6137085.8386841 1.1762085-.0817261.5523071-.6238403.9307251-1.1659546.848938-.0511474-.0101928-4.7457886-.7261962-7.9778442 1.7183228z" fill="#fd1b0a" fill-opacity="1" data-original-color="#000000ff" stroke="none" stroke-opacity="1"/></g></g></svg>