<svg id="Layer_1" enable-background="new 0 0 512 512" viewBox="0 0 512 512" xmlns="http://www.w3.org/2000/svg" width="300" height="300" version="1.1" xmlns:xlink="http://www.w3.org/1999/xlink" xmlns:svgjs="http://svgjs.dev/svgjs"><g width="100%" height="100%" transform="matrix(1,0,0,1,0,0)"><path d="m254 223.8c-20.7-7.7-34-29.1-34.4-50.8 3.2-5.4 7.5-10.1 12.4-14.1 1.8-1.4 9.2-7.7 11.7-7 17.1 4.8 35.1 4.7 52.2 0 10.2 3.7 18.9 11.3 23.9 20.9-.6 32.6-32.6 63.1-65.8 51zm-177.2-1.3v7.8 246.8c61.1-16.4 126.2-16.5 187.4-.1v-60.4h-118.9c-3.4.1-6.2-3.3-5.5-6.6 0 0 20.4-102.8 20.4-102.8 6.9-37.1 43.4-68 81.5-64.5l3.1-10.8c-8.6-4.3-16.3-10.5-22.2-18.1-48.5-7.4-98.7-4.3-145.8 8.7zm190.3 266.9c-61.3-17.7-127.5-18-189-1.1.7.7 1.7 1.1 2.7 1.1zm-11.9-253.6-3.5 12.4c11 7 25.2 7 36 0l-3.5-12.4c-9.5 2.4-19.5 2.4-29 0zm210.4-73.9h6.3c3.1-.7 2.6-5.5-.5-5.8h-45.3c-3.2-.3-4.1 4.9-1.1 5.8h17c7.3.1 7.3 11 0 11.1h-16.8c-3.2 1-2.4 6 .9 5.9h44.9c1.7 0 3-1.4 3-3.1 0-1.3-.9-2.4-2.1-2.8h-6.3c-7.3-.1-7.3-11 0-11.1zm-148.6 51.8c-5.9 7.6-13.6 13.9-22.3 18.2l3.1 10.8c38-3.5 74.7 27.5 81.5 64.5l20.3 102.8c.7 3.3-2 6.7-5.4 6.6h-118.9v60.5c62.1-16.7 128.2-16.7 190.3 0v-254.6c-47.9-13.3-99.2-16.4-148.6-8.8zm-262.7-73.1-14.9 12.2-17.2-17.1 12.2-14.9c2.7-3.2.3-6.8-1.3-9.9-2.6-4.6-1.9-11-7.7-12l-19.2-1.9v-24.2l19.2-1.9c2.2-.3 4.1-1.8 4.8-4 .6-5.7 8.1-12.7 4.2-17.8l-12.2-15 17.2-17.1s14.9 12.1 14.9 12.1c5.3 3.9 12-3.7 17.8-4.2 2.2-.7 3.7-2.6 3.9-4.8l2-19.1h24.2l1.9 19.1c.3 2.2 1.8 4.1 4 4.8 5.8.6 12.6 8.1 17.8 4.2l15.1-12.1 17.1 17.1s-12.1 14.9-12.1 14.9c-3.9 5.3 3.6 12 4.3 17.9.7 2.1 2.5 3.6 4.7 3.9l19.1 1.9v24.3s-19.1 1.9-19.1 1.9c-5.7.8-5.3 7.7-7.7 11.8-1.5 3.2-4.1 6.9-1.3 10.1l12.1 14.9-17.1 17.1s-14.9-12.2-14.9-12.2c-5.4-3.9-11.9 3.6-17.9 4.3-2.1.7-3.6 2.5-3.9 4.7l-1.9 19.1h-24.3l-2-19.1c-.2-2.2-1.7-4.1-3.9-4.7-6-.7-12.5-8.2-17.9-4.3zm64-23.2c30-25.4 11.1-75.9-28.1-75.4-23.7 0-42.9 19.3-42.9 43-.6 36.1 44.1 56.5 71 32.4zm358.4 118.5v249.5c0 8.3-6.8 15.1-15.1 15.1h-380.8c-8.7 0-15.6-7.4-15.1-16.1v-248.5h-8.9l.1 275.1 428.6-.1-.1-274.9h-8.7zm-148.7 143.1c0-3.1 2.4-5.6 5.6-5.6 3.1 0 5.6 2.5 5.6 5.6v26.6h48.3s-19.1-96.2-19.1-96.2c-5.8-31.2-34.7-55.7-66.6-56.1-.7.4-10.2 5.7-11.1 6.1-12.8 7.1-29.1 7-42-.1l-10.8-6.1c-31.9.4-60.8 24.8-66.6 56.2l-19.1 96.1h51.2v-26.5c0-3.1 2.4-5.6 5.6-5.6 3.1 0 5.6 2.5 5.6 5.6v26.6h113.4zm116.8-373.4c-53.8 3.4-73.2 73.5-29 104.1 11.8 7.9 15.3 21.7 14.2 35.3h37c-1-13.7 2.5-27.4 14.4-35.4 15.3-10.8 24.4-28.3 24.4-46.9.7-32.2-28.9-59.9-61-57.1zm-202.6 135c8.9.9 17.8 4.2 27 3.7 8.5-.2 17.1-1.2 25.3-3.6 1.1-.3 2.2-.3 3.3.1 10.2 3.4 19.5 9.7 26.2 18.2.1-.1.1-.2.1-.3 7.1-25 2.6-45.3-13.7-60.5-9.3-9.4-32.4-20.6-48.7-12.3-15.7 7-20 16.8-20.4 17.9-.7 1.6-2.1 2.8-3.7 3.3-22.9 5.9-29.6 28.9-22.2 52.6 7.1-8.4 16.3-15.7 26.8-19.1zm30.3 348.8h189c1.1 0 2.1-.4 2.7-1.1-62.4-17.3-129.4-16.9-191.7 1.1z" fill="#fd1b0a" fill-opacity="1" data-original-color="#000000ff" stroke="none" stroke-opacity="1"/></g></svg>